<svg xmlns="http://www.w3.org/2000/svg" xmlns:xlink="http://www.w3.org/1999/xlink" version="1.1" width="256" height="256" viewBox="0 0 256 256" xml:space="preserve">
<desc>Created with Fabric.js 1.7.22</desc>
<defs>
</defs>
<g transform="translate(128 128) scale(0.72 0.72)" style="">
	<g style="stroke: none; stroke-width: 0; stroke-dasharray: none; stroke-linecap: butt; stroke-linejoin: miter; stroke-miterlimit: 10; fill: none; fill-rule: nonzero; opacity: 1;" transform="translate(-175.05 -175.05000000000004) scale(3.89 3.89)" >
	<path d="M 90 38 h -9.341 C 77.83 23.566 66.434 12.17 52 9.341 V 0 H 38 v 9.341 C 23.566 12.17 12.17 23.566 9.341 38 H 0 v 14 h 9.341 C 12.17 66.434 23.566 77.83 38 80.659 V 90 h 14 v -9.341 C 66.434 77.83 77.83 66.434 80.659 52 H 90 V 38 z M 45 67.342 c -12.319 0 -22.342 -10.022 -22.342 -22.342 S 32.681 22.658 45 22.658 S 67.342 32.681 67.342 45 S 57.319 67.342 45 67.342 z" style="stroke: none; stroke-width: 1; stroke-dasharray: none; stroke-linecap: butt; stroke-linejoin: miter; stroke-miterlimit: 10; fill: rgb(0,0,0); fill-rule: nonzero; opacity: 1;" transform=" matrix(1 0 0 1 0 0) " stroke-linecap="round" />
</g>
</g>
</svg>